<?xml version="1.0" encoding="utf-8"?>
<!-- Generator: Adobe Illustrator 19.0.0, SVG Export Plug-In . SVG Version: 6.00 Build 0)  -->
<svg version="1.1" id="Layer_1" xmlns="http://www.w3.org/2000/svg" xmlns:xlink="http://www.w3.org/1999/xlink" x="0px" y="0px"
	 viewBox="0 0 1001 1001" style="enable-background:new 0 0 1001 1001;" xml:space="preserve">
<style type="text/css">
	.st0{fill:#C4543B;}
	.st1{fill:#00FF00;}
	.st2{fill:#8F9D6A;}
	.st3{fill:none;}
	.st4{font-family:'Hack-Regular';}
	.st5{font-size:50px;}
</style>
<g id="XMLID_550_">
	<g id="XMLID_572_">
		<g id="XMLID_60_">
			<path id="XMLID_64_" class="st0" d="M806.1,561.3c-4-12-7.9-24.1-11.9-36.1c-9.5-28.9-19-57.8-28.5-86.7
				c-11.5-35-23-69.9-34.5-104.9c-10-30.2-19.9-60.5-29.9-90.7c-4.8-14.7-9.3-29.6-14.5-44.2c-0.1-0.2-0.1-0.4-0.2-0.6
				c-2.4-7.3-14-4.2-11.6,3.2c4,12,7.9,24.1,11.9,36.1c9.5,28.9,19,57.8,28.5,86.7c11.5,35,23,69.9,34.5,104.9
				c10,30.2,19.9,60.5,29.9,90.7c4.8,14.7,9.3,29.6,14.5,44.2c0.1,0.2,0.1,0.4,0.2,0.6C796.9,571.8,808.5,568.6,806.1,561.3
				L806.1,561.3z"/>
		</g>
	</g>
	<g id="XMLID_565_">
		<g id="XMLID_54_">
			<path id="XMLID_58_" class="st0" d="M675,198c-4,12-7.9,24.1-11.9,36.1c-9.5,28.9-19,57.8-28.5,86.7c-11.5,35-23,69.9-34.5,104.9
				c-10,30.2-19.9,60.5-29.9,90.7c-4.8,14.6-10.6,29.3-14.5,44.2c-0.1,0.2-0.1,0.4-0.2,0.6c-2.4,7.4,9.2,10.5,11.6,3.2
				c4-12,7.9-24.1,11.9-36.1c9.5-28.9,19-57.8,28.5-86.7c11.5-35,23-69.9,34.5-104.9c10-30.2,19.9-60.5,29.9-90.7
				c4.8-14.6,10.6-29.3,14.5-44.2c0.1-0.2,0.1-0.4,0.2-0.6C689,193.9,677.4,190.7,675,198L675,198z"/>
		</g>
	</g>
	<g id="XMLID_558_">
		<g id="XMLID_48_">
			<path id="XMLID_52_" class="st0" d="M567,561.3c-4-12-7.9-24.1-11.9-36.1c-9.5-28.9-19-57.8-28.5-86.7
				c-11.5-35-23-69.9-34.5-104.9c-10-30.2-19.9-60.5-29.9-90.7c-4.8-14.7-9.3-29.6-14.5-44.2c-0.1-0.2-0.1-0.4-0.2-0.6
				c-2.4-7.3-14-4.2-11.6,3.2c4,12,7.9,24.1,11.9,36.1c9.5,28.9,19,57.8,28.5,86.7c11.5,35,23,69.9,34.5,104.9
				c10,30.2,19.9,60.5,29.9,90.7c4.8,14.7,9.3,29.6,14.5,44.2c0.1,0.2,0.1,0.4,0.2,0.6C557.8,571.8,569.4,568.6,567,561.3L567,561.3
				z"/>
		</g>
	</g>
	<g id="XMLID_551_">
		<g id="XMLID_42_">
			<path id="XMLID_46_" class="st0" d="M914.3,198c-4,12-7.9,24.1-11.9,36.1c-9.5,28.9-19,57.8-28.5,86.7
				c-11.5,35-23,69.9-34.5,104.9c-10,30.2-19.9,60.5-29.9,90.7c-4.8,14.6-10.6,29.3-14.5,44.2c-0.1,0.2-0.1,0.4-0.2,0.6
				c-2.4,7.4,9.2,10.5,11.6,3.2c4-12,7.9-24.1,11.9-36.1c9.5-28.9,19-57.8,28.5-86.7c11.5-35,23-69.9,34.5-104.9
				c10-30.2,19.9-60.5,29.9-90.7c4.8-14.6,10.6-29.3,14.5-44.2c0.1-0.2,0.1-0.4,0.2-0.6C928.3,193.9,916.7,190.7,914.3,198
				L914.3,198z"/>
		</g>
	</g>
</g>
<g id="XMLID_473_">
	<g id="XMLID_543_">
		<line id="XMLID_40_" class="st1" x1="441.5" y1="199.6" x2="321.9" y2="562.9"/>
		<g id="XMLID_35_">
			<path id="XMLID_39_" class="st2" d="M435.7,198c-4,12-7.9,24.1-11.9,36.1c-9.5,28.9-19,57.8-28.5,86.7
				c-11.5,35-23,69.9-34.5,104.9c-10,30.2-19.9,60.5-29.9,90.7c-4.8,14.6-10.6,29.3-14.5,44.2c-0.1,0.2-0.1,0.4-0.2,0.6
				c-2.4,7.4,9.2,10.5,11.6,3.2c4-12,7.9-24.1,11.9-36.1c9.5-28.9,19-57.8,28.5-86.7c11.5-35,23-69.9,34.5-104.9
				c10-30.2,19.9-60.5,29.9-90.7c4.8-14.6,10.6-29.3,14.5-44.2c0.1-0.2,0.1-0.4,0.2-0.6C449.7,193.9,438.1,190.7,435.7,198
				L435.7,198z"/>
		</g>
	</g>
	<g id="XMLID_536_">
		<line id="XMLID_33_" class="st1" x1="321.9" y1="562.9" x2="202.4" y2="199.6"/>
		<g id="XMLID_28_">
			<path id="XMLID_32_" class="st2" d="M327.7,561.3c-4-12-7.9-24.1-11.9-36.1c-9.5-28.9-19-57.8-28.5-86.7
				c-11.5-35-23-69.9-34.5-104.9c-10-30.2-19.9-60.5-29.9-90.7c-4.8-14.7-9.3-29.6-14.5-44.2c-0.1-0.2-0.1-0.4-0.2-0.6
				c-2.4-7.3-14-4.2-11.6,3.2c4,12,7.9,24.1,11.9,36.1c9.5,28.9,19,57.8,28.5,86.7c11.5,35,23,69.9,34.5,104.9
				c10,30.2,19.9,60.5,29.9,90.7c4.8,14.7,9.3,29.6,14.5,44.2c0.1,0.2,0.1,0.4,0.2,0.6C318.5,571.8,330.1,568.6,327.7,561.3
				L327.7,561.3z"/>
		</g>
	</g>
	<g id="XMLID_504_">
		<line id="XMLID_26_" class="st1" x1="202.4" y1="199.6" x2="82.8" y2="562.9"/>
		<g id="XMLID_21_">
			<path id="XMLID_25_" class="st2" d="M196.6,198c-4,12-7.9,24.1-11.9,36.1c-9.5,28.9-19,57.8-28.5,86.7
				c-11.5,35-23,69.9-34.5,104.9c-10,30.2-19.9,60.5-29.9,90.7c-4.8,14.6-10.6,29.3-14.5,44.2c-0.1,0.2-0.1,0.4-0.2,0.6
				c-2.4,7.4,9.2,10.5,11.6,3.2c4-12,7.9-24.1,11.9-36.1c9.5-28.9,19-57.8,28.5-86.7c11.5-35,23-69.9,34.5-104.9
				c10-30.2,19.9-60.5,29.9-90.7c4.8-14.6,10.6-29.3,14.5-44.2c0.1-0.2,0.1-0.4,0.2-0.6C210.6,193.9,199,190.7,196.6,198L196.6,198z
				"/>
		</g>
	</g>
	<g id="XMLID_474_">
		<line id="XMLID_19_" class="st1" x1="505.7" y1="394.3" x2="441.7" y2="199.6"/>
		<g id="XMLID_12_">
			<path id="XMLID_17_" class="st2" d="M511.5,392.7c-7.2-21.9-14.4-43.7-21.6-65.6c-11.5-34.9-23-69.8-34.4-104.8
				c-2.7-8.1-5.3-16.2-8-24.3c-2.4-7.3-14-4.2-11.6,3.2c7.2,21.9,14.4,43.7,21.6,65.6c11.5,34.9,23,69.8,34.4,104.8
				c2.7,8.1,5.3,16.2,8,24.3C502.3,403.2,513.9,400,511.5,392.7L511.5,392.7z"/>
		</g>
	</g>
</g>
<rect id="XMLID_18_" x="262.2" y="731.5" class="st3" width="271.3" height="56.3"/>
<text id="XMLID_912_" transform="matrix(1 0 0 1 262.1613 769.4462)" class="st2 st4 st5">Mackaber</text>
<rect id="XMLID_15_" x="528.4" y="731.8" class="st3" width="253.7" height="43.2"/>
<text id="XMLID_925_" transform="matrix(1 0 0 1 528.4113 769.7693)" class="st0 st4 st5">Witckin</text>
</svg>
