<?xml version="1.0" encoding="utf-8"?>
<!-- Generator: Adobe Illustrator 17.0.0, SVG Export Plug-In . SVG Version: 6.00 Build 0)  -->
<!DOCTYPE svg PUBLIC "-//W3C//DTD SVG 1.1//EN" "http://www.w3.org/Graphics/SVG/1.1/DTD/svg11.dtd">
<svg version="1.1" xmlns="http://www.w3.org/2000/svg" xmlns:xlink="http://www.w3.org/1999/xlink" x="0px" y="0px" width="340px"
	 height="340px" viewBox="0 0 340 340" enable-background="new 0 0 340 340" xml:space="preserve">
<g id="Capa_2">
	<rect fill="#141414" width="340" height="340"/>
</g>
<g id="Capa_1">

		<line fill="#FFFFFF" stroke="#8F9D6A" stroke-width="2" stroke-miterlimit="10" x1="154.661" y1="47.819" x2="154.572" y2="302.385"/>
	<g>
		<path fill="#8F9D6A" d="M103.554,167.015l30.081,32.558C110.01,206.869,88.079,186.424,103.554,167.015z"/>
		<path fill="#8F9D6A" d="M148.323,245.948c-17.651,0.46-31.37-3.852-41.158-12.919c2.488,7.312,4.459,12.289,5.902,14.928
			l4.069-4.781l5.392,15.239l8.831-12l9.148,16.366l7.785-12.625l6.349,10.048l0.02-15.113
			C152.315,245.508,150.2,245.795,148.323,245.948z"/>
		<g>
			<g>
				<polygon fill="#8F9D6A" points="170.089,46.156 161.636,55.32 169.045,81.19 186.339,85.942 213.43,33.742 				"/>
				<polygon fill="#8F9D6A" points="197.348,133.723 227.456,125.1 246.216,93.578 200.262,80.943 188.643,103.333 				"/>
				<path fill="#8F9D6A" d="M277.984,112.022c4.462-1.278,8.053-3.353,9.774-5.391l-35.666-9.805l-16.224,27.261L277.984,112.022
					L277.984,112.022z"/>
				<polygon fill="#8F9D6A" points="285.761,56.541 219.684,36.92 222.449,82.764 				"/>
				<polygon fill="#8F9D6A" points="165.79,91.771 166.5,111.581 176.283,96.291 				"/>
				<path fill="#8F9D6A" d="M135.913,152.116"/>
			</g>
		</g>
		<path fill="#8F9D6A" d="M179.466,101.953l11.516,34.231l-30.687,0.148c0.038-0.078,0.038-0.175,0.082-0.245L179.466,101.953z"/>
		<g>
			<path fill="#8F9D6A" d="M169.4,152.416h16.674l-1.219,9.697h-6.23l-2.959,25.181l-1.184-3.422l-3.133,26.485l-3.55-10.268
				l3.62-30.56l1.184,3.343l1.288-10.758h-5.674L169.4,152.416z"/>
			<path fill="#8F9D6A" d="M195.402,183.057l-4.351,4.318v0.082l-1.219-3.504l-3.133,26.485l-3.55-10.268l3.62-30.56l1.184,3.422
				l2.471-20.616h4.7l-2.542,21.678l4.421-4.402l1.776-1.794l1.88-15.482h4.699l-3.029,23.714l-1.531,1.549l-3.864,32.842
				l-3.55-10.268L195.402,183.057z"/>
			<path fill="#8F9D6A" d="M208.211,152.416h15.038l-3.029,23.388l-1.531,1.549h-0.035l-9.781,9.779l2.924,8.883l1.287-10.838
				l3.446,10.105l0.035-0.082l-0.035,0.082h0.035l-0.035,0.082l-1.741,15.076h-4.142l-6.684-21.269L208.211,152.416z
				 M217.367,162.194l-5.535,0.163l-1.393,11.491l6.266-6.193L217.367,162.194z"/>
			<path fill="#8F9D6A" d="M231.813,169.61l1.184,3.34l2.471-20.535h4.7l-4.073,34.96l-1.219-3.504l-1.949,16.298l4.769,0.163
				l-0.035-0.163l3.655-30.56l1.149,3.34l2.472-20.535h4.734l-4.107,34.96l-1.219-3.504l-1.358,11.491l6.336-8.15l4.212-34.797
				h4.734l-5.047,42.457l-11.174,15.566h-15.037L231.813,169.61z"/>
			<path fill="#8F9D6A" d="M262.549,152.416h15.038l-3.029,23.388l-1.531,1.549h-0.035l-9.782,9.779l2.924,8.883l1.287-10.838
				l3.446,10.105l0.035-0.082l-0.035,0.082h0.035l-0.035,0.082l-1.741,15.076h-4.142l-6.684-21.269L262.549,152.416z
				 M271.705,162.194l-5.535,0.163l-1.393,11.491l6.266-6.193L271.705,162.194z"/>
			<path fill="#8F9D6A" d="M278.422,169.61l1.184,3.422l2.471-20.616h14.934l-3.029,23.714l-1.531,1.549l-2.645,22.492
				l-1.184,10.268h-0.035v0.082l-0.035-0.082h-14.933l1.184-10.187v-0.082L278.422,169.61z M287.09,183.057l-4.386,4.318v0.082
				l-1.219-3.504l-1.914,16.217h5.5L287.09,183.057z M284.235,174.093l4.421-4.402l1.776-1.794l0.662-5.377l-5.5,0.163
				L284.235,174.093z"/>
			<path fill="#8F9D6A" d="M305.26,169.447l1.184,3.343l2.437-20.374h4.734l-4.107,34.797l-1.184-3.504l-3.133,26.567l-3.551-10.268
				L305.26,169.447z"/>
			<path fill="#8F9D6A" d="M315.668,176.781l2.923-24.365h15.038l-1.253,10.105l-5.326,5.216l0.627-5.216l-5.57,0.163l-1.323,11.409
				l4.386-4.32l0.035-0.082l3.412,8.883l-3.516,31.864h-10.477v0.082l-0.035-0.082l-3.412-10.268h0.035l1.949-16.38l3.516,10.35
				l-0.766,6.03h5.674l2.019-16.87l-4.386,4.075v0.082L315.668,176.781z"/>
			<path fill="#8F9D6A" d="M176.764,239.582l1.253-10.513h-5.604l-2.924,24.936l-1.184-3.504l-2.133,26.567l-4.551-10.268
				l4.621-30.56l0.184,3.343l2.436-20.374h25.411l-4.107,35.123l-1.184-3.504l-3.133,26.567l-3.551-10.268l3.621-30.56l1.184,3.34
				l1.253-10.838h-5.604l-2.924,24.936L176.764,239.582z"/>
			<path fill="#8F9D6A" d="M202.488,219.208l5.048,15.158l3.516-15.158h5.256l-8.424,33.738l-0.8-2.363l-3.168,26.648l-3.551-10.268
				l3.168-26.567l-7.135-21.188H202.488z"/>
			<path fill="#8F9D6A" d="M226.401,219.208h15.038l-3.029,23.388l-1.531,1.549h-0.035l-9.781,9.779l2.924,8.883l1.287-10.838
				l3.446,10.105l0.035-0.082l-0.035,0.082h0.035l-0.035,0.082l-1.741,15.076h-4.142l-6.684-21.269L226.401,219.208z
				 M235.557,228.987l-5.535,0.163l-1.393,11.491l6.266-6.193L235.557,228.987z"/>
			<path fill="#8F9D6A" d="M253.448,236.402l1.149,3.422l1.253-10.511l-5.605,0.163l-2.889,24.773l-1.219-3.504l-3.133,26.485
				l-3.551-10.268l3.655-30.56l1.149,3.422l2.472-20.616h4.734l5.605,0.082v-0.082h4.734l-4.107,35.042l-1.219-3.504l-3.133,26.485
				l-3.551-10.268L253.448,236.402z"/>
			<path fill="#8F9D6A" d="M265.7,219.208h15.038l-3.029,23.388l-1.531,1.549h-0.035l-9.781,9.779l2.924,8.883l1.287-10.838
				l3.446,10.105l0.035-0.082l-0.035,0.082h0.035l-0.035,0.082l-1.741,15.076h-4.142l-6.684-21.269L265.7,219.208z M274.856,228.987
				l-5.535,0.163l-1.393,11.491l6.266-6.193L274.856,228.987z"/>
			<path fill="#8F9D6A" d="M293.758,239.582l1.253-10.513h-5.604l-2.924,24.936l-1.184-3.504l-3.133,26.567l-3.551-10.268
				l3.621-30.56l1.184,3.343l2.436-20.374h25.411l-4.107,35.123l-1.184-3.504l-3.133,26.567l-3.551-10.268l3.621-30.56l1.184,3.34
				l1.253-10.838h-5.604l-2.924,24.936L293.758,239.582z"/>
			<path fill="#8F9D6A" d="M319.481,219.208l5.048,15.158l3.516-15.158h5.256l-8.424,33.738l-0.8-2.363l-3.168,26.648l-3.551-10.268
				l3.168-26.567l-7.135-21.188H319.481z"/>
		</g>
		<rect x="163.549" y="288.301" fill="none" width="165.333" height="17.333"/>
		<text transform="matrix(1 0 0 1 163.5497 297.4181)" fill="#8F9D6A" font-family="'Hack'" font-size="12">by Mackaber Witckin</text>
		<g>
			<g>
				<path fill="#8F9D6A" d="M153.192,295.984c-7.311,0-25.115-14.083-42.361-29.837c-1.166-1.061-2.325-2.126-3.477-3.2
					c-1.145-1.061-2.278-2.128-3.404-3.196c-6.873-6.503-16.74-16.77-20.3-23.799c-2.425-4.788-3.708-21.144-3.708-21.144
					c-0.501-24.487,1.475-59.096,14.539-77.96c9.844-12.499,26.785-17.629,59.991-17.865l0.1-71.18
					c-2.065-0.089-4.106-0.151-6.09-0.146L101.758,26.3L88.577,64.2c-0.698,0.475-1.332,1.013-2.008,1.505l-51.107-1.036
					c0,0,15.999,56.486,13.715,59.684c-2.283,3.197-42.292,30.907-42.292,30.907l48.835,45.916c0,0,0.021,0.018,0.054,0.055
					c5.2,14.787,11.673,27.916,20.876,37.47l0,0l10.542,13.417c2.374,2.488,4.766,5.622,17.171,17.074l8.197,7.407
					c15.216,13.364,31.739,25.785,40.627,25.785c0.329,0,0.677-0.03,1.027-0.064l0.009-6.428
					C153.862,295.947,153.513,295.984,153.192,295.984z"/>
				<path fill="#8F9D6A" d="M102.363,267.443"/>
			</g>
		</g>
	</g>
</g>
</svg>
